<svg xmlns="http://www.w3.org/2000/svg" version="1.1" xmlns:xlink="http://www.w3.org/1999/xlink" xmlns:svgjs="http://svgjs.dev/svgjs" width="1440" height="560" preserveAspectRatio="none" viewBox="0 0 1440 560"><g mask="url(&quot;#SvgjsMask1025&quot;)" fill="none"><rect width="1440" height="560" x="0" y="0" fill="rgba(5, 8, 22, 1)"></rect><path d="M1512 560L0 560 L0 314.46Q77.59 272.05, 120 349.65Q185.76 295.41, 240 361.18Q245.15 294.33, 312 299.47Q365.15 232.63, 432 285.78Q496.93 278.7, 504 343.63Q540.48 260.11, 624 296.58Q653.4 253.99, 696 283.39Q757.14 272.53, 768 333.68Q834.52 280.21, 888 346.73Q909.34 296.06, 960 317.4Q1008.25 245.64, 1080 293.89Q1161.8 255.69, 1200 337.49Q1268.38 285.88, 1320 354.26Q1367.67 329.94, 1392 377.61Q1446.7 312.31, 1512 367.01z" fill="rgba(37, 28, 75, 0.24)"></path><path d="M1560 560L0 560 L0 436.81Q17.29 334.1, 120 351.39Q193.03 304.42, 240 377.46Q317.32 334.78, 360 412.11Q390.69 370.8, 432 401.48Q445.59 343.07, 504 356.66Q569.42 302.09, 624 367.51Q669.57 341.08, 696 386.65Q714.43 333.08, 768 351.52Q814.56 326.07, 840 372.63Q892.55 353.18, 912 405.72Q965.01 386.73, 984 439.74Q1032.49 368.23, 1104 416.71Q1142.29 335, 1224 373.29Q1276.05 353.34, 1296 405.38Q1353.26 390.64, 1368 447.9Q1368.54 376.44, 1440 376.98Q1487.52 304.5, 1560 352.02z" fill="rgba(37, 28, 75, 0.54)"></path><path d="M1512 560L0 560 L0 474.23Q48.78 403.01, 120 451.79Q206.7 418.5, 240 505.2Q242.9 436.1, 312 439Q376.71 431.71, 384 496.42Q454.35 446.77, 504 517.12Q506.14 447.26, 576 449.41Q630.8 384.21, 696 439Q746.74 417.74, 768 468.48Q851.09 431.57, 888 514.66Q910.58 417.24, 1008 439.82Q1060.63 372.44, 1128 425.07Q1185.15 410.22, 1200 467.37Q1247.78 395.15, 1320 442.94Q1348.42 399.36, 1392 427.78Q1477.81 393.58, 1512 479.39z" fill="rgba(37, 28, 75, 0.55)"></path><path d="M1512 560L0 560 L0 570.6Q42.75 493.36, 120 536.11Q160.22 456.33, 240 496.55Q306.49 443.04, 360 509.53Q409.74 487.26, 432 537Q474.16 507.16, 504 549.33Q556.01 529.35, 576 581.36Q610.37 495.73, 696 530.09Q739.02 453.12, 816 496.14Q874.91 483.05, 888 541.96Q933.21 515.17, 960 560.38Q980.73 509.11, 1032 529.84Q1059.55 485.39, 1104 512.94Q1194.39 483.33, 1224 573.72Q1238.07 515.79, 1296 529.85Q1317.67 479.52, 1368 501.2Q1398.47 459.67, 1440 490.15Q1492.14 470.29, 1512 522.43z" fill="rgba(37, 28, 75, 1)"></path></g><defs><mask id="SvgjsMask1025"><rect width="1440" height="560" fill="#ffffff"></rect></mask></defs></svg>